<svg xmlns="http://www.w3.org/2000/svg" version="1.1" xmlns:xlink="http://www.w3.org/1999/xlink" width="1000" height="1000"><metadata><rdf:RDF xmlns:rdf="http://www.w3.org/1999/02/22-rdf-syntax-ns#" xmlns:dc="http://purl.org/dc/elements/1.1/"><rdf:Description><dc:creator>RealFaviconGenerator</dc:creator><dc:source>https://realfavicongenerator.net</dc:source></rdf:Description></rdf:RDF></metadata><style>
    #light-icon {
      display: inline;
    }
    #dark-icon {
      display: none;
    }

    @media (prefers-color-scheme: dark) {
      #light-icon {
        display: none;
      }
      #dark-icon {
        display: inline;
      }
    }
  </style><g id="light-icon"><svg xmlns="http://www.w3.org/2000/svg" version="1.1" xmlns:xlink="http://www.w3.org/1999/xlink" width="1000" height="1000"><g clip-path="url(#SvgjsClipPath1103)"><rect width="1000" height="1000" fill="#ffffff"></rect><g transform="matrix(29.62962962962963,0,0,29.62962962962963,100,248.14814814814815)"><svg xmlns="http://www.w3.org/2000/svg" class="w-11 h-auto text-foreground" width="27" height="17" viewBox="0 0 27 17" fill="none"><path d="M13.2119 0C13.3799 9.50565e-05 13.5388 0.0448005 13.6797 0.12207H13.6836L19.5986 3.35742C19.7105 3.41691 19.7804 3.49991 19.7881 3.59082L14.1436 6.68066H14.1406C13.8577 6.82219 13.5436 6.90315 13.2129 6.90332C12.882 6.90325 12.5672 6.82226 12.2842 6.68066H12.2803L6.63281 3.58887C6.6418 3.50003 6.7104 3.42003 6.81934 3.36133L12.7402 0.12207H12.7441C12.885 0.0448314 13.044 0.000112572 13.2119 0Z" fill="currentColor"></path><path d="M12.2178 9.33643H12.2188C12.5213 9.48791 12.8583 9.57443 13.2119 9.57471C13.5656 9.57461 13.9025 9.48774 14.2051 9.33643H14.2061L20.0742 6.12451L26.0371 9.38623V9.38721C26.2623 9.50639 26.4048 9.67152 26.4209 9.854L15.0693 16.0669C14.5022 16.3497 13.8725 16.5101 13.21 16.5103C12.5541 16.5101 11.9308 16.3531 11.3682 16.0757L0 9.854C0.0135298 9.6954 0.123427 9.54967 0.299805 9.43604L0.384766 9.38623L6.34766 6.12354L12.2178 9.33643Z" fill="currentColor"></path></svg></g></g><defs><clipPath id="SvgjsClipPath1103"><rect width="1000" height="1000" x="0" y="0" rx="250" ry="250"></rect></clipPath></defs></svg></g><g id="dark-icon"><svg xmlns="http://www.w3.org/2000/svg" version="1.1" xmlns:xlink="http://www.w3.org/1999/xlink" width="1000" height="1000"><g clip-path="url(#SvgjsClipPath1104)"><rect width="1000" height="1000" fill="#000000"></rect><g transform="matrix(29.62962962962963,0,0,29.62962962962963,100,248.14814814814815)"><svg xmlns="http://www.w3.org/2000/svg" width="27" height="17" viewBox="0 0 27 17"><path id="Path" fill="#ffffff" stroke="none" d="M 13.2119 0 C 13.3799 9.5e-05 13.5388 0.0448 13.6797 0.12207 L 13.6836 0.12207 L 19.5986 3.35742 C 19.710501 3.41691 19.780399 3.49991 19.788099 3.59082 L 14.1436 6.68066 L 14.1406 6.68066 C 13.8577 6.822189 13.5436 6.903151 13.2129 6.90332 C 12.882 6.90325 12.5672 6.82226 12.2842 6.68066 L 12.2803 6.68066 L 6.63281 3.58887 C 6.6418 3.500031 6.7104 3.420031 6.81934 3.36133 L 12.7402 0.12207 L 12.7441 0.12207 C 12.885 0.044832 13.044 0.000113 13.2119 0 Z"></path><path id="path1" fill="#ffffff" stroke="none" d="M 12.2178 9.33643 L 12.2188 9.33643 C 12.5213 9.48791 12.8583 9.57443 13.2119 9.57471 C 13.5656 9.57461 13.9025 9.48774 14.2051 9.33643 L 14.2061 9.33643 L 20.0742 6.12451 L 26.0371 9.38623 L 26.0371 9.38721 C 26.2623 9.50639 26.4048 9.67152 26.4209 9.854 L 15.0693 16.0669 C 14.5022 16.349701 13.8725 16.510099 13.21 16.5103 C 12.5541 16.510099 11.9308 16.3531 11.3682 16.075701 L -0 9.854 C 0.01353 9.6954 0.123427 9.54967 0.299805 9.43604 L 0.384766 9.38623 L 6.34766 6.12354 L 12.2178 9.33643 Z"></path></svg></g></g><defs><clipPath id="SvgjsClipPath1104"><rect width="1000" height="1000" x="0" y="0" rx="350" ry="350"></rect></clipPath></defs></svg></g></svg>